name Walk1.mot
datacolumns 19
datarows 25
range 2.05300000 2.07700000
endheader

                time	   L_ground_force_vx	   L_ground_force_vy	   L_ground_force_vz	   L_ground_force_px	   L_ground_force_py	   L_ground_force_pz	   R_ground_force_vx	   R_ground_force_vy	   R_ground_force_vz	   R_ground_force_px	   R_ground_force_py	   R_ground_force_pz	   L_ground_torque_x	   L_ground_torque_y	   L_ground_torque_z	   R_ground_torque_x	   R_ground_torque_y	   R_ground_torque_z	
          2.05300000	          0.12731512	          0.05833794	         -0.01880813	          0.00121886	          0.00000000	          0.00059420	         -9.62576564	        885.54037560	        -74.73156652	          0.23157398	          0.00000000	          0.13892879	          0.00000000	         -0.00186786	          0.00000000	          0.00000000	         10.29841149	          0.00000000	
          2.05400000	          0.12872413	          0.08258549	         -0.01718567	          0.00112443	          0.00000000	          0.00055205	         -9.32917015	        885.34687731	        -74.62482298	          0.23173345	          0.00000000	          0.13891651	          0.00000000	         -0.00173151	          0.00000000	          0.00000000	         10.23708972	          0.00000000	
          2.05500000	          0.12952692	          0.10445935	         -0.01563622	          0.00103377	          0.00000000	          0.00051141	         -9.03492113	        885.16577607	        -74.50955761	          0.23189395	          0.00000000	          0.13890405	          0.00000000	         -0.00160021	          0.00000000	          0.00000000	         10.17568453	          0.00000000	
          2.05600000	          0.12977201	          0.12407867	         -0.01415942	          0.00094692	          0.00000000	          0.00047229	         -8.74285024	        884.99797489	        -74.38628149	          0.23205547	          0.00000000	          0.13889145	          0.00000000	         -0.00147403	          0.00000000	          0.00000000	         10.11420474	          0.00000000	
          2.05700000	          0.12950588	          0.14156101	         -0.01275468	          0.00086387	          0.00000000	          0.00043470	         -8.45278822	        884.84432949	        -74.25552261	          0.23221800	          0.00000000	          0.13887871	          0.00000000	         -0.00135300	          0.00000000	          0.00000000	         10.05266011	          0.00000000	
          2.05800000	          0.12877300	          0.15702200	         -0.01142118	          0.00078462	          0.00000000	          0.00039868	         -8.16456616	        884.70564798	        -74.11782455	          0.23238153	          0.00000000	          0.13886585	          0.00000000	         -0.00123715	          0.00000000	          0.00000000	          9.99106127	          0.00000000	
          2.05900000	          0.12761583	          0.17057509	         -0.01015790	          0.00070915	          0.00000000	          0.00036421	         -7.87801670	        884.58269101	        -73.97374517	          0.23254607	          0.00000000	          0.13885291	          0.00000000	         -0.00112648	          0.00000000	          0.00000000	          9.92941971	          0.00000000	
          2.06000000	          0.12607482	          0.18233127	         -0.00896365	          0.00063741	          0.00000000	          0.00033129	         -7.59297491	        884.47617202	        -73.82385510	          0.23271162	          0.00000000	          0.13883988	          0.00000000	         -0.00102096	          0.00000000	          0.00000000	          9.86774778	          0.00000000	
          2.06100000	          0.12418843	          0.19239890	         -0.00783706	          0.00056936	          0.00000000	          0.00029992	         -7.30927888	        884.38675747	        -73.66873577	          0.23287820	          0.00000000	          0.13882680	          0.00000000	         -0.00092056	          0.00000000	          0.00000000	          9.80605866	          0.00000000	
          2.06200000	          0.12199314	          0.20088352	         -0.00677665	          0.00050494	          0.00000000	          0.00027008	         -7.02676995	        884.31506674	        -73.50897696	          0.23304580	          0.00000000	          0.13881369	          0.00000000	         -0.00082521	          0.00000000	          0.00000000	          9.74436632	          0.00000000	
          2.06300000	          0.11952353	          0.20788764	         -0.00578079	          0.00044410	          0.00000000	          0.00024176	         -6.74529295	        884.26167154	        -73.34517400	          0.23321445	          0.00000000	          0.13880055	          0.00000000	         -0.00073485	          0.00000000	          0.00000000	          9.68268540	          0.00000000	
          2.06400000	          0.11681224	          0.21351068	         -0.00484776	          0.00038675	          0.00000000	          0.00021494	         -6.46469662	        884.22709515	        -73.17792503	          0.23338417	          0.00000000	          0.13878741	          0.00000000	         -0.00064940	          0.00000000	          0.00000000	          9.62103111	          0.00000000	
          2.06500000	          0.11389006	          0.21784883	         -0.00397574	          0.00033281	          0.00000000	          0.00018958	         -6.18483420	        884.21181186	        -73.00782851	          0.23355497	          0.00000000	          0.13877428	          0.00000000	         -0.00056876	          0.00000000	          0.00000000	          9.55941899	          0.00000000	
          2.06600000	          0.11078598	          0.22099492	         -0.00316284	          0.00028221	          0.00000000	          0.00016566	         -5.90556428	        884.21624667	        -72.83548105	          0.23372689	          0.00000000	          0.13876120	          0.00000000	         -0.00049282	          0.00000000	          0.00000000	          9.49786466	          0.00000000	
          2.06700000	          0.10752719	          0.22303843	         -0.00240711	          0.00023483	          0.00000000	          0.00014315	         -5.62675159	        884.24077524	        -72.66147556	          0.23389994	          0.00000000	          0.13874817	          0.00000000	         -0.00042148	          0.00000000	          0.00000000	          9.43638363	          0.00000000	
          2.06800000	          0.10413915	          0.22406539	         -0.00170653	          0.00019060	          0.00000000	          0.00012202	         -5.34826764	        884.28572371	        -72.48639984	          0.23407415	          0.00000000	          0.13873523	          0.00000000	         -0.00035462	          0.00000000	          0.00000000	          9.37499103	          0.00000000	
          2.06900000	          0.10064566	          0.22415834	         -0.00105907	          0.00014941	          0.00000000	          0.00010222	         -5.06999106	        884.35136845	        -72.31083537	          0.23424954	          0.00000000	          0.13872240	          0.00000000	         -0.00029210	          0.00000000	          0.00000000	          9.31370148	          0.00000000	
          2.07000000	          0.09706889	          0.22339634	         -0.00046266	          0.00011116	          0.00000000	          0.00008371	         -4.79180782	        884.43793539	        -72.13535662	          0.23442615	          0.00000000	          0.13870970	          0.00000000	         -0.00023379	          0.00000000	          0.00000000	          9.25252906	          0.00000000	
          2.07100000	          0.09342942	          0.22185497	          0.00008479	          0.00007574	          0.00000000	          0.00006647	         -4.51361119	        884.54559917	        -71.96053046	          0.23460397	          0.00000000	          0.13869716	          0.00000000	         -0.00017955	          0.00000000	          0.00000000	          9.19148752	          0.00000000	
          2.07200000	          0.08974635	          0.21960631	          0.00058537	          0.00004305	          0.00000000	          0.00005044	         -4.23530161	        884.67448202	        -71.78691572	          0.23478303	          0.00000000	          0.13868480	          0.00000000	         -0.00012925	          0.00000000	          0.00000000	          9.13059072	          0.00000000	
          2.07300000	          0.08603730	          0.21671900	          0.00104118	          0.00001297	          0.00000000	          0.00003558	         -3.95678640	        884.82465258	        -71.61506251	          0.23496333	          0.00000000	          0.13867265	          0.00000000	         -0.00008273	          0.00000000	          0.00000000	          9.06985303	          0.00000000	
          2.07400000	          0.08231850	          0.21325826	          0.00145430	         -0.00001460	          0.00000000	          0.00002185	         -3.67797937	        884.99612474	        -71.44551118	          0.23514487	          0.00000000	          0.13866072	          0.00000000	         -0.00003986	          0.00000000	          0.00000000	          9.00928973	          0.00000000	
          2.07500000	          0.07860482	          0.20928590	          0.00182680	         -0.00003977	          0.00000000	          0.00000920	         -3.39880048	        885.18885724	        -71.27879092	          0.23532764	          0.00000000	          0.13864905	          0.00000000	         -0.00000049	          0.00000000	          0.00000000	          8.94891696	          0.00000000	
          2.07600000	          0.07490986	          0.20486045	          0.00216072	         -0.00006265	          0.00000000	         -0.00000240	         -3.11917558	        885.40275418	        -71.11541790	          0.23551166	          0.00000000	          0.13863764	          0.00000000	          0.00003555	          0.00000000	          0.00000000	          8.88875146	          0.00000000	
          2.07700000	          0.07124600	          0.20003715	          0.00245809	         -0.00008335	          0.00000000	         -0.00001301	         -2.83903623	        885.63766655	        -70.95589335	          0.23569690	          0.00000000	          0.13862653	          0.00000000	          0.00006838	          0.00000000	          0.00000000	          8.82881000	          0.00000000	
